{
  "accessors": [
    {
      "bufferView": 2,
      "componentType": 5126,
      "count": 41115,
      "max": [
        79.051124572753906,
        -18.273942947387695,
        126.1114501953125
      ],
      "min": [
        -79.051124572753906,
        -24.59330940246582,
        4.988555908203125
      ],
      "type": "VEC3"
    },
    {
      "bufferView": 2,
      "byteOffset": 493380,
      "componentType": 5126,
      "count": 41115,
      "max": [
        1,
        1,
        1
      ],
      "min": [
        -1,
        -1,
        -1
      ],
      "type": "VEC3"
    },
    {
      "bufferView": 1,
      "componentType": 5126,
      "count": 41115,
      "max": [
        0.9962189793586731,
        0.99704200029373169
      ],
      "min": [
        0.0028979999478906393,
        0.0028979999478906393
      ],
      "type": "VEC2"
    },
    {
      "bufferView": 0,
      "componentType": 5125,
      "count": 88008,
      "max": [
        41114
      ],
      "min": [
        0
      ],
      "type": "SCALAR"
    },
    {
      "bufferView": 2,
      "byteOffset": 986760,
      "componentType": 5126,
      "count": 4320,
      "max": [
        95,
        24.056354522705078,
        141.99345397949219
      ],
      "min": [
        -95,
        -19.944690704345703,
        -2.7434349060058594
      ],
      "type": "VEC3"
    },
    {
      "bufferView": 2,
      "byteOffset": 1038600,
      "componentType": 5126,
      "count": 4320,
      "max": [
        1,
        1,
        1
      ],
      "min": [
        -1,
        -1,
        -1
      ],
      "type": "VEC3"
    },
    {
      "bufferView": 1,
      "byteOffset": 328920,
      "componentType": 5126,
      "count": 4320,
      "max": [
        0.99139302968978882,
        0.98102599382400513
      ],
      "min": [
        0.0029039999935775995,
        0.13676099479198456
      ],
      "type": "VEC2"
    },
    {
      "bufferView": 0,
      "byteOffset": 352032,
      "componentType": 5125,
      "count": 14328,
      "max": [
        4319
      ],
      "min": [
        0
      ],
      "type": "SCALAR"
    },
    {
      "bufferView": 2,
      "byteOffset": 1090440,
      "componentType": 5126,
      "count": 144,
      "max": [
        91.800003051757812,
        18.806354522705078,
        122.65000915527344
      ],
      "min": [
        -91.800003051757812,
        -16.893646240234375,
        8.450007438659668
      ],
      "type": "VEC3"
    },
    {
      "bufferView": 2,
      "byteOffset": 1092168,
      "componentType": 5126,
      "count": 144,
      "max": [
        1,
        1,
        1
      ],
      "min": [
        -1,
        -1,
        -1
      ],
      "type": "VEC3"
    },
    {
      "bufferView": 1,
      "byteOffset": 363480,
      "componentType": 5126,
      "count": 144,
      "max": [
        0,
        0
      ],
      "min": [
        0,
        0
      ],
      "type": "VEC2"
    },
    {
      "bufferView": 0,
      "byteOffset": 409344,
      "componentType": 5125,
      "count": 216,
      "max": [
        143
      ],
      "min": [
        0
      ],
      "type": "SCALAR"
    },
    {
      "bufferView": 2,
      "byteOffset": 1093896,
      "componentType": 5126,
      "count": 653,
      "max": [
        90.700004577636719,
        23.306354522705078,
        137.00001525878906
      ],
      "min": [
        -90.700004577636719,
        -13.793647766113281,
        0.65000098943710327
      ],
      "type": "VEC3"
    },
    {
      "bufferView": 2,
      "byteOffset": 1101732,
      "componentType": 5126,
      "count": 653,
      "max": [
        1,
        1,
        1
      ],
      "min": [
        -1,
        -1,
        -1
      ],
      "type": "VEC3"
    },
    {
      "bufferView": 3,
      "componentType": 5126,
      "count": 653,
      "max": [
        1,
        1,
        1,
        1
      ],
      "min": [
        -1,
        -1,
        -1,
        1
      ],
      "type": "VEC4"
    },
    {
      "bufferView": 1,
      "byteOffset": 364632,
      "componentType": 5126,
      "count": 653,
      "max": [
        1.447172999382019,
        1.5107829570770264
      ],
      "min": [
        -0.49340599775314331,
        -0.51737099885940552
      ],
      "type": "VEC2"
    },
    {
      "bufferView": 0,
      "byteOffset": 410208,
      "componentType": 5125,
      "count": 1326,
      "max": [
        652
      ],
      "min": [
        0
      ],
      "type": "SCALAR"
    },
    {
      "bufferView": 2,
      "byteOffset": 1109568,
      "componentType": 5126,
      "count": 4142,
      "max": [
        101,
        23.906352996826172,
        138.00001525878906
      ],
      "min": [
        -101,
        -26.093645095825195,
        0
      ],
      "type": "VEC3"
    },
    {
      "bufferView": 2,
      "byteOffset": 1159272,
      "componentType": 5126,
      "count": 4142,
      "max": [
        1,
        1,
        1
      ],
      "min": [
        -1,
        -1,
        -1
      ],
      "type": "VEC3"
    },
    {
      "bufferView": 3,
      "byteOffset": 10448,
      "componentType": 5126,
      "count": 4142,
      "max": [
        1,
        1,
        1,
        1
      ],
      "min": [
        -1,
        -1,
        -1,
        -1
      ],
      "type": "VEC4"
    },
    {
      "bufferView": 1,
      "byteOffset": 369856,
      "componentType": 5126,
      "count": 4142,
      "max": [
        0.99614101648330688,
        0.99744099378585815
      ],
      "min": [
        0.0025539998896420002,
        0.0025539998896420002
      ],
      "type": "VEC2"
    },
    {
      "bufferView": 0,
      "byteOffset": 415512,
      "componentType": 5125,
      "count": 7560,
      "max": [
        4141
      ],
      "min": [
        0
      ],
      "type": "SCALAR"
    }
  ],
  "asset": {
    "extras": {
      "author": "Interiors3D (https://sketchfab.com/Interiors3D)",
      "license": "CC-BY-4.0 (http://creativecommons.org/licenses/by/4.0/)",
      "source": "https://sketchfab.com/3d-models/a39900-1a763cc41c5b43639d8d5babac643b22",
      "title": "A39900"
    },
    "generator": "Sketchfab-8.48.0",
    "version": "2.0"
  },
  "bufferViews": [
    {
      "buffer": 0,
      "byteLength": 445752,
      "byteOffset": 0,
      "name": "floatBufferViews",
      "target": 34963
    },
    {
      "buffer": 0,
      "byteLength": 402992,
      "byteOffset": 445752,
      "byteStride": 8,
      "name": "floatBufferViews",
      "target": 34962
    },
    {
      "buffer": 0,
      "byteLength": 1208976,
      "byteOffset": 848744,
      "byteStride": 12,
      "name": "floatBufferViews",
      "target": 34962
    },
    {
      "buffer": 0,
      "byteLength": 76720,
      "byteOffset": 2057720,
      "byteStride": 16,
      "name": "floatBufferViews",
      "target": 34962
    }
  ],
  "buffers": [
    {
      "byteLength": 2134440,
      "uri": "scene.bin"
    }
  ],
  "images": [
    {
      "uri": "textures/Metal.black_baseColor.jpeg"
    },
    {
      "uri": "textures/Metal.black_metallicRoughness.png"
    },
    {
      "uri": "textures/Mirror_baseColor.png"
    },
    {
      "uri": "textures/Wood.back_baseColor.jpeg"
    },
    {
      "uri": "textures/Wood.back_metallicRoughness.png"
    },
    {
      "uri": "textures/Wood.back_normal.png"
    },
    {
      "uri": "textures/wood.white_baseColor.jpeg"
    },
    {
      "uri": "textures/wood.white_metallicRoughness.png"
    },
    {
      "uri": "textures/wood.white_normal.png"
    }
  ],
  "materials": [
    {
      "doubleSided": true,
      "name": "Metal.black",
      "pbrMetallicRoughness": {
        "baseColorFactor": [
          0.80000000000000004,
          0.80000000000000004,
          0.80000000000000004,
          1
        ],
        "baseColorTexture": {
          "index": 0,
          "texCoord": 0
        },
        "metallicFactor": 1,
        "metallicRoughnessTexture": {
          "index": 1,
          "texCoord": 0
        },
        "roughnessFactor": 0.90000000000000002
      }
    },
    {
      "alphaMode": "BLEND",
      "doubleSided": true,
      "name": "Mirror",
      "pbrMetallicRoughness": {
        "baseColorFactor": [
          1,
          1,
          1,
          1
        ],
        "baseColorTexture": {
          "index": 2,
          "texCoord": 0
        },
        "metallicFactor": 0,
        "roughnessFactor": 0.050000000000000003
      }
    },
    {
      "doubleSided": true,
      "name": "Wood.back",
      "normalTexture": {
        "index": 5,
        "scale": 1,
        "texCoord": 0
      },
      "pbrMetallicRoughness": {
        "baseColorFactor": [
          1,
          1,
          1,
          1
        ],
        "baseColorTexture": {
          "index": 3,
          "texCoord": 0
        },
        "metallicFactor": 0,
        "metallicRoughnessTexture": {
          "index": 4,
          "texCoord": 0
        },
        "roughnessFactor": 1
      }
    },
    {
      "doubleSided": true,
      "name": "wood.white",
      "normalTexture": {
        "index": 8,
        "scale": 0.59999999999999998,
        "texCoord": 0
      },
      "pbrMetallicRoughness": {
        "baseColorFactor": [
          1,
          1,
          1,
          1
        ],
        "baseColorTexture": {
          "index": 6,
          "texCoord": 0
        },
        "metallicFactor": 0,
        "metallicRoughnessTexture": {
          "index": 7,
          "texCoord": 0
        },
        "roughnessFactor": 1
      }
    }
  ],
  "meshes": [
    {
      "primitives": [
        {
          "attributes": {
            "NORMAL": 1,
            "POSITION": 0,
            "TEXCOORD_0": 2
          },
          "indices": 3,
          "material": 0,
          "mode": 4
        }
      ]
    },
    {
      "primitives": [
        {
          "attributes": {
            "NORMAL": 5,
            "POSITION": 4,
            "TEXCOORD_0": 6
          },
          "indices": 7,
          "material": 0,
          "mode": 4
        }
      ]
    },
    {
      "primitives": [
        {
          "attributes": {
            "NORMAL": 9,
            "POSITION": 8,
            "TEXCOORD_0": 10
          },
          "indices": 11,
          "material": 1,
          "mode": 4
        }
      ]
    },
    {
      "primitives": [
        {
          "attributes": {
            "NORMAL": 13,
            "POSITION": 12,
            "TANGENT": 14,
            "TEXCOORD_0": 15
          },
          "indices": 16,
          "material": 2,
          "mode": 4
        }
      ]
    },
    {
      "primitives": [
        {
          "attributes": {
            "NORMAL": 18,
            "POSITION": 17,
            "TANGENT": 19,
            "TEXCOORD_0": 20
          },
          "indices": 21,
          "material": 3,
          "mode": 4
        }
      ]
    }
  ],
  "nodes": [
    {
      "children": [
        1
      ],
      "name": "RootNode (gltf orientation matrix)",
      "rotation": [
        -0.70710678118654746,
        -0,
        -0,
        0.70710678118654757
      ]
    },
    {
      "children": [
        2
      ],
      "name": "RootNode (model correction matrix)"
    },
    {
      "children": [
        3,
        4,
        5,
        6,
        7
      ],
      "name": "W11 - A39900 - Sketchfab - mesh.black.obj.cleaner.materialmerger.gles"
    },
    {
      "mesh": 0,
      "name": ""
    },
    {
      "mesh": 1,
      "name": ""
    },
    {
      "mesh": 2,
      "name": ""
    },
    {
      "mesh": 3,
      "name": ""
    },
    {
      "mesh": 4,
      "name": ""
    }
  ],
  "samplers": [
    {
      "magFilter": 9729,
      "minFilter": 9987,
      "wrapS": 10497,
      "wrapT": 10497
    }
  ],
  "scene": 0,
  "scenes": [
    {
      "name": "OSG_Scene",
      "nodes": [
        0
      ]
    }
  ],
  "textures": [
    {
      "sampler": 0,
      "source": 0
    },
    {
      "sampler": 0,
      "source": 1
    },
    {
      "sampler": 0,
      "source": 2
    },
    {
      "sampler": 0,
      "source": 3
    },
    {
      "sampler": 0,
      "source": 4
    },
    {
      "sampler": 0,
      "source": 5
    },
    {
      "sampler": 0,
      "source": 6
    },
    {
      "sampler": 0,
      "source": 7
    },
    {
      "sampler": 0,
      "source": 8
    }
  ]
}

